# Blender v2.82 (sub 7) OBJ File: ''
# www.blender.org
mtllib rect_ssmall.mtl
o Cube.001
v -1.046701 -0.979949 1.094282
v -1.051577 1.023543 1.100344
v -1.027944 -0.993377 -0.929038
v -1.032218 1.009683 -0.923724
v 0.950213 -0.977739 1.098119
v 0.979123 1.001564 1.062177
v 0.975929 -0.996150 -0.933852
v 0.960700 1.014753 -0.914919
v -1.036130 -0.987517 -0.418860
v -1.035757 -0.987784 0.080676
v -1.021973 -0.997652 0.563539
v -1.047042 -0.479704 1.094706
v -1.026391 0.005511 1.069032
v -1.056916 0.527364 1.106981
v -1.043404 1.017691 0.590183
v -1.045915 1.019489 0.093304
v -1.024600 1.004229 -0.433195
v -1.053383 0.524836 -0.897410
v -1.039308 0.014758 -0.914910
v -1.047185 -0.479602 -0.905116
v 0.455453 -0.981490 -0.908396
v -0.041933 -0.983362 -0.911646
v -0.524900 -0.995557 -0.932822
v -0.549903 1.022344 -0.901737
v -0.023421 1.003385 -0.934660
v 0.478581 1.001951 -0.937150
v 0.954339 0.519307 -0.907011
v 0.973114 0.005865 -0.930353
v 0.956116 -0.481965 -0.909220
v 0.950985 -0.978292 0.597159
v 0.973040 -0.994082 0.069739
v 0.968454 -0.990799 -0.424559
v 0.969141 1.008710 -0.425414
v 0.960152 1.015145 0.085762
v 0.953976 1.019567 0.593441
v 0.957023 0.517386 1.089653
v 0.978705 0.001863 1.062697
v 0.967895 -0.490399 1.076135
v -0.527652 -0.993587 1.070599
v -0.024998 -0.995487 1.067300
v 0.478608 -0.998068 1.062816
v 0.474280 1.005031 1.068197
v -0.053725 1.025080 1.103015
v -0.533079 1.010299 1.077347
v -1.025347 -0.495237 0.567733
v -1.038117 0.013906 0.583610
v -1.029752 0.507917 0.573210
v -1.022381 -0.497360 0.064046
v -1.054477 0.025619 0.103950
v -1.061370 0.530553 0.112519
v -1.025810 -0.494905 -0.431691
v -1.022742 0.002898 -0.435505
v -1.051588 0.523550 -0.399642
v -0.533785 -0.489196 -0.921776
v -0.526185 0.005363 -0.931225
v -0.555290 0.526200 -0.895040
v -0.048514 -0.478650 -0.903463
v -0.032482 0.009871 -0.923396
v -0.051585 0.523548 -0.899646
v 0.462509 -0.486542 -0.917168
v 0.454293 0.019340 -0.906953
v 0.463519 0.512734 -0.918425
v 0.975972 -0.496181 -0.433906
v 0.972385 0.006387 -0.429446
v 0.952129 0.520889 -0.404263
v 0.977957 -0.497602 0.063626
v 0.952659 0.020509 0.095077
v 0.969319 0.508582 0.074365
v 0.965670 -0.488806 0.578901
v 0.962833 0.013226 0.582429
v 0.970170 0.507973 0.573308
v 0.460164 -0.484864 1.085747
v 0.474800 0.004658 1.067551
v 0.453265 0.520076 1.094324
v -0.043287 -0.482393 1.090038
v -0.042512 0.017052 1.089074
v -0.020870 0.501558 1.062168
v -0.519541 -0.499393 1.060515
v -0.548659 0.021454 1.096717
v -0.526059 0.505273 1.068619
v -0.546494 -0.980096 -0.405975
v -0.045456 -0.980840 -0.407266
v 0.459201 -0.984174 -0.413056
v -0.533352 -0.989505 0.077686
v -0.051959 -0.976184 0.100819
v 0.480497 -0.999421 0.060468
v -0.543125 -0.982508 0.589837
v -0.039934 -0.984794 0.585869
v 0.456155 -0.981993 0.590732
v 0.475481 1.004170 -0.433296
v -0.052339 1.024088 -0.398708
v -0.529319 1.007607 -0.427328
v 0.468292 1.009318 0.075642
v -0.046897 1.020192 0.094526
v -0.530081 1.008153 0.073620
v 0.450073 1.022361 0.598292
v -0.028556 1.007061 0.571724
v -0.545192 1.018971 0.592406
vt 0.437500 0.062500
vt 0.500000 0.062500
vt 0.500000 0.125000
vt 0.437500 0.125000
vt 0.562500 0.062500
vt 0.562500 0.125000
vt 0.500000 0.187500
vt 0.437500 0.187500
vt 0.562500 0.187500
vt 0.375000 0.000000
vt 0.437500 0.000000
vt 0.375000 0.062500
vt 0.500000 0.000000
vt 0.562500 0.000000
vt 0.625000 0.000000
vt 0.625000 0.062500
vt 0.625000 0.125000
vt 0.625000 0.187500
vt 0.625000 0.250000
vt 0.562500 0.250000
vt 0.500000 0.250000
vt 0.437500 0.250000
vt 0.375000 0.187500
vt 0.375000 0.250000
vt 0.375000 0.125000
vt 0.437500 0.312500
vt 0.500000 0.312500
vt 0.500000 0.375000
vt 0.437500 0.375000
vt 0.562500 0.312500
vt 0.562500 0.375000
vt 0.500000 0.437500
vt 0.437500 0.437500
vt 0.562500 0.437500
vt 0.375000 0.312500
vt 0.625000 0.312500
vt 0.625000 0.375000
vt 0.625000 0.437500
vt 0.625000 0.500000
vt 0.562500 0.500000
vt 0.500000 0.500000
vt 0.437500 0.500000
vt 0.375000 0.437500
vt 0.375000 0.500000
vt 0.375000 0.375000
vt 0.437500 0.562500
vt 0.500000 0.562500
vt 0.500000 0.625000
vt 0.437500 0.625000
vt 0.562500 0.562500
vt 0.562500 0.625000
vt 0.500000 0.687500
vt 0.437500 0.687500
vt 0.562500 0.687500
vt 0.375000 0.562500
vt 0.625000 0.562500
vt 0.625000 0.625000
vt 0.625000 0.687500
vt 0.625000 0.750000
vt 0.562500 0.750000
vt 0.500000 0.750000
vt 0.437500 0.750000
vt 0.375000 0.687500
vt 0.375000 0.750000
vt 0.375000 0.625000
vt 0.437500 0.812500
vt 0.500000 0.812500
vt 0.500000 0.875000
vt 0.437500 0.875000
vt 0.562500 0.812500
vt 0.562500 0.875000
vt 0.500000 0.937500
vt 0.437500 0.937500
vt 0.562500 0.937500
vt 0.375000 0.812500
vt 0.625000 0.812500
vt 0.625000 0.875000
vt 0.625000 0.937500
vt 0.625000 1.000000
vt 0.562500 1.000000
vt 0.500000 1.000000
vt 0.437500 1.000000
vt 0.375000 0.937500
vt 0.375000 1.000000
vt 0.375000 0.875000
vt 0.187500 0.562500
vt 0.250000 0.562500
vt 0.250000 0.625000
vt 0.187500 0.625000
vt 0.312500 0.562500
vt 0.312500 0.625000
vt 0.250000 0.687500
vt 0.187500 0.687500
vt 0.312500 0.687500
vt 0.125000 0.500000
vt 0.187500 0.500000
vt 0.125000 0.562500
vt 0.250000 0.500000
vt 0.312500 0.500000
vt 0.312500 0.750000
vt 0.250000 0.750000
vt 0.187500 0.750000
vt 0.125000 0.687500
vt 0.125000 0.750000
vt 0.125000 0.625000
vt 0.687500 0.562500
vt 0.750000 0.562500
vt 0.750000 0.625000
vt 0.687500 0.625000
vt 0.812500 0.562500
vt 0.812500 0.625000
vt 0.750000 0.687500
vt 0.687500 0.687500
vt 0.812500 0.687500
vt 0.687500 0.500000
vt 0.750000 0.500000
vt 0.812500 0.500000
vt 0.875000 0.500000
vt 0.875000 0.562500
vt 0.875000 0.625000
vt 0.875000 0.687500
vt 0.875000 0.750000
vt 0.812500 0.750000
vt 0.750000 0.750000
vt 0.687500 0.750000
vn -0.9989 -0.0441 0.0132
vn -0.9987 0.0016 0.0510
vn -0.9993 -0.0275 -0.0268
vn -0.9987 -0.0331 -0.0385
vn -0.9990 -0.0035 -0.0437
vn -0.9999 0.0078 -0.0099
vn -0.9997 -0.0214 -0.0149
vn -0.9994 -0.0079 -0.0336
vn -0.9994 0.0019 0.0357
vn -0.9986 0.0420 -0.0308
vn -0.9987 0.0504 0.0099
vn -0.9989 -0.0425 0.0182
vn -0.9991 0.0116 0.0401
vn -0.9999 -0.0090 0.0133
vn -0.9997 0.0242 0.0039
vn -0.9999 0.0102 0.0110
vn 0.0271 -0.0305 -0.9992
vn 0.0031 0.0580 -0.9983
vn 0.0028 -0.0098 -0.9999
vn -0.0023 0.0122 -0.9999
vn -0.0197 0.0337 -0.9992
vn -0.0325 -0.0189 -0.9993
vn -0.0134 0.0514 -0.9986
vn 0.0253 -0.0343 -0.9991
vn -0.0372 -0.0414 -0.9984
vn -0.0215 -0.0544 -0.9983
vn 0.0351 -0.0278 -0.9990
vn -0.0118 0.0117 -0.9999
vn -0.0154 -0.0109 -0.9998
vn -0.0171 0.0155 -0.9997
vn -0.0104 -0.0006 -0.9999
vn 0.0403 0.0196 -0.9990
vn 0.9995 0.0277 0.0170
vn 1.0000 0.0036 0.0025
vn 0.9996 0.0275 0.0021
vn 0.9996 -0.0248 -0.0114
vn 0.9998 0.0124 -0.0125
vn 0.9997 -0.0139 -0.0198
vn 0.9993 0.0378 0.0028
vn 0.9997 -0.0240 -0.0064
vn 0.9999 -0.0080 -0.0083
vn 0.9997 0.0247 0.0052
vn 0.9999 -0.0060 -0.0122
vn 0.9999 0.0142 -0.0027
vn 0.9998 -0.0082 -0.0186
vn 0.9994 -0.0332 -0.0015
vn 0.9993 -0.0190 0.0334
vn 0.9999 -0.0126 -0.0067
vn 0.0256 0.0190 0.9995
vn -0.0107 0.0001 0.9999
vn -0.0218 -0.0351 0.9991
vn 0.0144 0.0561 0.9983
vn -0.0262 -0.0010 0.9997
vn 0.0146 0.0318 0.9994
vn 0.0092 -0.0517 0.9986
vn 0.0109 0.0547 0.9984
vn 0.0026 -0.0146 0.9999
vn -0.0189 -0.0489 0.9986
vn 0.0583 -0.0020 0.9983
vn 0.0105 -0.0097 0.9999
vn 0.0064 -0.0104 0.9999
vn 0.0555 0.0093 0.9984
vn -0.0266 -0.0128 0.9996
vn 0.0085 -0.0441 0.9990
vn 0.0129 -0.9999 -0.0049
vn -0.0261 -0.9996 -0.0104
vn 0.0112 -0.9999 -0.0016
vn -0.0196 -0.9998 0.0084
vn 0.0051 -0.9998 0.0207
vn 0.0113 -0.9998 0.0177
vn -0.0015 -1.0000 -0.0002
vn -0.0206 -0.9998 0.0026
vn -0.0013 -0.9998 -0.0191
vn 0.0086 -0.9995 0.0318
vn 0.0256 -0.9995 -0.0165
vn 0.0002 -0.9996 -0.0281
vn -0.0043 -0.9997 -0.0225
vn 0.0015 -1.0000 0.0066
vn 0.0137 -0.9999 -0.0029
vn 0.0058 -0.9999 -0.0099
vn 0.0294 0.9996 -0.0012
vn -0.0299 0.9995 0.0035
vn -0.0045 1.0000 0.0001
vn -0.0001 1.0000 0.0023
vn -0.0179 0.9998 0.0039
vn 0.0200 0.9996 -0.0214
vn 0.0024 1.0000 -0.0059
vn -0.0170 0.9996 0.0214
vn 0.0077 0.9999 -0.0152
vn 0.0098 0.9999 -0.0088
vn 0.0118 0.9999 0.0028
vn -0.0028 1.0000 -0.0092
vn 0.0047 1.0000 -0.0007
vn 0.0066 0.9993 0.0373
vn -0.0030 0.9999 -0.0170
vn -0.0103 0.9999 -0.0115
usemtl None
s off
f 45/1/1 46/2/1 49/3/1 48/4/1
f 46/2/2 47/5/2 50/6/2 49/3/2
f 48/4/3 49/3/3 52/7/3 51/8/3
f 49/3/4 50/6/4 53/9/4 52/7/4
f 1/10/5 12/11/5 45/1/5 11/12/5
f 12/11/6 13/13/6 46/2/6 45/1/6
f 13/13/7 14/14/7 47/5/7 46/2/7
f 14/14/8 2/15/8 15/16/8 47/5/8
f 47/5/9 15/16/9 16/17/9 50/6/9
f 50/6/10 16/17/10 17/18/10 53/9/10
f 53/9/11 17/18/11 4/19/11 18/20/11
f 52/7/12 53/9/12 18/20/12 19/21/12
f 51/8/13 52/7/13 19/21/13 20/22/13
f 9/23/14 51/8/14 20/22/14 3/24/14
f 10/25/15 48/4/15 51/8/15 9/23/15
f 11/12/16 45/1/16 48/4/16 10/25/16
f 54/26/17 55/27/17 58/28/17 57/29/17
f 55/27/18 56/30/18 59/31/18 58/28/18
f 57/29/19 58/28/19 61/32/19 60/33/19
f 58/28/20 59/31/20 62/34/20 61/32/20
f 3/24/21 20/22/21 54/26/21 23/35/21
f 20/22/22 19/21/22 55/27/22 54/26/22
f 19/21/23 18/20/23 56/30/23 55/27/23
f 18/20/24 4/19/24 24/36/24 56/30/24
f 56/30/25 24/36/25 25/37/25 59/31/25
f 59/31/26 25/37/26 26/38/26 62/34/26
f 62/34/27 26/38/27 8/39/27 27/40/27
f 61/32/28 62/34/28 27/40/28 28/41/28
f 60/33/29 61/32/29 28/41/29 29/42/29
f 21/43/30 60/33/30 29/42/30 7/44/30
f 22/45/31 57/29/31 60/33/31 21/43/31
f 23/35/32 54/26/32 57/29/32 22/45/32
f 63/46/33 64/47/33 67/48/33 66/49/33
f 64/47/34 65/50/34 68/51/34 67/48/34
f 66/49/35 67/48/35 70/52/35 69/53/35
f 67/48/36 68/51/36 71/54/36 70/52/36
f 7/44/37 29/42/37 63/46/37 32/55/37
f 29/42/38 28/41/38 64/47/38 63/46/38
f 28/41/39 27/40/39 65/50/39 64/47/39
f 27/40/40 8/39/40 33/56/40 65/50/40
f 65/50/41 33/56/41 34/57/41 68/51/41
f 68/51/42 34/57/42 35/58/42 71/54/42
f 71/54/43 35/58/43 6/59/43 36/60/43
f 70/52/44 71/54/44 36/60/44 37/61/44
f 69/53/45 70/52/45 37/61/45 38/62/45
f 30/63/46 69/53/46 38/62/46 5/64/46
f 31/65/47 66/49/47 69/53/47 30/63/47
f 32/55/48 63/46/48 66/49/48 31/65/48
f 72/66/49 73/67/49 76/68/49 75/69/49
f 73/67/50 74/70/50 77/71/50 76/68/50
f 75/69/51 76/68/51 79/72/51 78/73/51
f 76/68/52 77/71/52 80/74/52 79/72/52
f 5/64/53 38/62/53 72/66/53 41/75/53
f 38/62/54 37/61/54 73/67/54 72/66/54
f 37/61/55 36/60/55 74/70/55 73/67/55
f 36/60/56 6/59/56 42/76/56 74/70/56
f 74/70/57 42/76/57 43/77/57 77/71/57
f 77/71/58 43/77/58 44/78/58 80/74/58
f 80/74/59 44/78/59 2/79/59 14/80/59
f 79/72/60 80/74/60 14/80/60 13/81/60
f 78/73/61 79/72/61 13/81/61 12/82/61
f 39/83/62 78/73/62 12/82/62 1/84/62
f 40/85/63 75/69/63 78/73/63 39/83/63
f 41/75/64 72/66/64 75/69/64 40/85/64
f 81/86/65 82/87/65 85/88/65 84/89/65
f 82/87/66 83/90/66 86/91/66 85/88/66
f 84/89/67 85/88/67 88/92/67 87/93/67
f 85/88/68 86/91/68 89/94/68 88/92/68
f 3/95/69 23/96/69 81/86/69 9/97/69
f 23/96/70 22/98/70 82/87/70 81/86/70
f 22/98/71 21/99/71 83/90/71 82/87/71
f 21/99/72 7/44/72 32/55/72 83/90/72
f 83/90/73 32/55/73 31/65/73 86/91/73
f 86/91/74 31/65/74 30/63/74 89/94/74
f 89/94/75 30/63/75 5/64/75 41/100/75
f 88/92/76 89/94/76 41/100/76 40/101/76
f 87/93/77 88/92/77 40/101/77 39/102/77
f 11/103/78 87/93/78 39/102/78 1/104/78
f 10/105/79 84/89/79 87/93/79 11/103/79
f 9/97/80 81/86/80 84/89/80 10/105/80
f 90/106/81 91/107/81 94/108/81 93/109/81
f 91/107/82 92/110/82 95/111/82 94/108/82
f 93/109/83 94/108/83 97/112/83 96/113/83
f 94/108/84 95/111/84 98/114/84 97/112/84
f 8/39/85 26/115/85 90/106/85 33/56/85
f 26/115/86 25/116/86 91/107/86 90/106/86
f 25/116/87 24/117/87 92/110/87 91/107/87
f 24/117/88 4/118/88 17/119/88 92/110/88
f 92/110/89 17/119/89 16/120/89 95/111/89
f 95/111/90 16/120/90 15/121/90 98/114/90
f 98/114/91 15/121/91 2/122/91 44/123/91
f 97/112/92 98/114/92 44/123/92 43/124/92
f 96/113/93 97/112/93 43/124/93 42/125/93
f 35/58/94 96/113/94 42/125/94 6/59/94
f 34/57/95 93/109/95 96/113/95 35/58/95
f 33/56/96 90/106/96 93/109/96 34/57/96
